<?xml version="1.0" encoding="utf-8"?>
<!-- Generator: Adobe Illustrator 19.1.0, SVG Export Plug-In . SVG Version: 6.00 Build 0)  -->
<svg version="1.1" id="Слой_1" xmlns="http://www.w3.org/2000/svg" xmlns:xlink="http://www.w3.org/1999/xlink" x="0px" y="0px"
	 viewBox="-108 271.3 61 54" style="enable-background:new -108 271.3 61 54;" xml:space="preserve">
<style type="text/css">
	.st0{fill:#0B24FB;}
</style>
<g id="Background_xA0_Image_1_">
</g>
<g id="Shape_2_1_">
	<g id="Shape_2">
		<path class="st0" d="M-88.1,281.2c0,0-0.8-0.3-2.1-0.4c-1.3-0.1-2.7,0.7-2.7,0.7c0.6-0.1,1-0.1,2.1-0.2
			C-89.8,281.1-88.1,281.2-88.1,281.2z M-63.9,282.7c0.3-0.1,2.2-0.5,3.5-1.7c0.8-0.7,0.4-2.1,0.1-2.9c0.1,0.8-0.1,2.2-0.7,2.9
			C-61.7,281.8-63.9,282.7-63.9,282.7z M-77.6,290.7L-77.6,290.7C-77.7,291.4-77.6,290.7-77.6,290.7z M-60.3,278.1
			c0-0.2-0.1-0.3-0.1-0.4C-60.6,277.5-60.4,277.7-60.3,278.1z M-82.5,321.4l-0.2-0.4l-0.2,0.4l-0.5,0.1l0.4,0.3l-0.2,0.5l0.4-0.2
			l0.4,0.2l-0.1-0.5l0.4-0.3L-82.5,321.4z M-74.6,322l-0.2-0.4L-75,322l-0.5,0.1l0.4,0.3l-0.1,0.5l0.4-0.2l0.4,0.2l-0.1-0.5l0.4-0.3
			L-74.6,322z M-71,321.2l-0.2-0.4l-0.2,0.4l-0.5,0.1l0.4,0.3l-0.1,0.5l0.4-0.2l0.4,0.2l-0.1-0.5l0.4-0.3L-71,321.2z M-78.8,322
			l-0.2-0.4l-0.2,0.4l-0.5,0.1l0.4,0.3l-0.1,0.5l0.4-0.2l0.4,0.2l-0.1-0.5l0.4-0.3L-78.8,322z M-72.3,310.6c0.2,0.2,0.8,0,1.2-0.7
			c0.2-0.4,0.4-1.2,0-2c-0.4-0.8-1-0.8-1.1-0.7c-0.4,0.3-0.1,0.6,0.1,1.1c0.2,0.4,0.1,1-0.1,1.3C-72.4,309.8-72.5,310.4-72.3,310.6z
			 M-61.5,297.3c-0.2,0-0.4,0.2-0.4,0.4c0,0.2,0.2,0.4,0.4,0.4s0.4-0.2,0.4-0.4C-61,297.5-61.2,297.3-61.5,297.3z M-49.6,307.5
			c-0.6-0.6-1.1-1.4-1.3-2.3s0.5-1.6,0.8-2.1c0.3-0.5,0.1-1.1-0.1-1.3c-0.2-0.2-0.8-0.4-1.8,0.1s-1.3,1.8-1.5,2.5
			c-0.4,1.7,0.9,3.7,0.9,3.7s-2.1-1.6-2.4-1.9c-1.2-1.2-1.3-2.1-1-3.8s0.7-2.3-0.2-4.4c-0.6-1.5-2.1-2.3-2.6-2.5l0,0
			c0.3,0.1,0.2,0.1,0,0c0.7-0.5,1.5-1.2,1.6-1.9c0.4-1.6,0.3-1.3,0.3-1.3s2.3-0.3,2.5-2.7c0.2-2.4-1.4-3.5-1.4-3.5s1.5-0.7,1-2.2
			s-2.6-1.1-2.6-1.1s1.9-5.3-3.2-9c-4.1-2.9-8.7-1.1-9.6-0.5c-0.9,0.7-1.4,1.2-1.4,1.2s-0.1-2.6-2.6-2.7c-1.8-0.1-2.5,0.5-2.5,0.5
			s-1.1-0.6-2.1-0.4s-1.9,0.9-1.9,0.9s-1-1.9-2.9-2s-3.1,0.3-4,0.9c-2.7,1.7-3,4.3-2.6,5.8s0.2,1.1,0.2,1.1s-4.8-0.1-7.8,3.6
			c-3,3.7-1.6,6.5-0.8,7.9c0.8,1.3,2,1.8,2,1.8s0.2,1,0.5,1.9c-0.6-0.1-1.4-0.3-1.4-0.3s-0.7-0.9-1.8-0.6s-1.1,1.2-1.1,1.2
			s-1.5,0.8-2,2.6c-0.5,1.8-0.4,2.7,0.3,4.8c0.7,2.1,1.7,3.1,1.9,3.2c0.2,0.2,0.5,0.3,0.8,0.2c0.3,0,0.4,0,0.4,0s0.2,1.2-0.2,2
			c-0.4,0.8-1.9,2.9-2.8,3.3c-0.9,0.4-2.3,0.6-3.1-0.1c-0.7-0.6-1.2-1-1.2-2.3c0-1.3,0.5-1.8,0.8-2c0.3-0.2,0.9-0.4,1-0.1
			c0.2,0.2,0.3,0.7,0.2,1.2c0,0.4-0.1,1.2,0.4,1.4c0.5,0.3,1.5,0.1,2.1-0.5c0.7-0.5,1.4-1.9,0.9-3s-1.7-2.2-3.3-2.1
			c-1.6,0.1-3.7,1.4-4.1,3c-0.4,1.6-0.4,3.7,0.4,4.9c0.7,1.4,1.9,2.7,3.7,2.9c0.7,0.1,1.5-0.1,1.9-0.1c0.4-0.1,0.7-0.1,0.7-0.1
			s0.1,0.6,0.4,1c0.2,0.4,0.4,0.8,0.2,1.1c-0.2,0.3-1.2,1.6-1.4,1.8c-0.2,0.2-0.4,0.7-0.2,1.4c0.2,0.7,0.8,2.6,1.2,3
			c0.3,0.4,1,0.9,1.8,0.9c0.8,0,1.8-0.1,2.3-0.1c0.4,0,1-0.4,1.1-1c0.1-0.6-0.2-1.2-0.7-1.6s-1.2-0.7-1.4-1c-0.2-0.4-0.3-0.6,0-0.8
			c0.3-0.2,1.6-1.1,2.1-1.3c0.5-0.3,1-0.7,1.1-1.2s0.2-1.4,0.2-1.4h0.7c0,0-0.1,1.3,0,1.8c0.1,0.5,0.4,1.1,1.6,1.2
			c0.8,0,1.8,0,2.4,0c0,0.2,0.1,0.4,0.1,0.5c0.2,0.3,0.9,1.1,0.9,1.1s-0.4,0.7-0.7,1.2c-0.5,0.5-0.1,1.4,0.6,1.4c0.7,0,2.5,0,2.5,0
			s0,0.3,0.1,0.8c0.1,0.5,2.2,2.9,8.9,2.9c6.7,0,8.9-1.6,9.6-2.2c0.7-0.5,0.6-1.6,0.6-1.6s1.5,0,2.4,0s1.1-0.9,0.9-1.2
			c-0.1-0.2-0.8-1.3-0.8-1.3s0.2-0.3,0.6-0.8c0.3,0.4,1,0.7,1.5,0.7s1.3-0.1,1.6-0.5c0.4-0.4,0.7-0.5,2-0.7s1.5-0.4,1.8-0.8
			c0.3-0.4,0.2-1.2,0.2-1.2h0.5c0,0,0.2,0.3,0.4,0.6c0.2,0.3,1,0.6,1.3,0.7s0.7,0.7,0.7,0.7s-1.3,2.9-1.5,3.5s-0.2,1,0.1,1.5
			c0.3,0.4,1.3,0.4,2,0.4c0.7-0.1,1.3-0.7,1.4-1.3c0.1-0.6,0.4-1.9,0.7-2.9c0.2-0.9,0.6-1.4,0.9-2.1c0.2-0.7-0.2-1.3-0.4-1.5
			c-0.2-0.3-0.6-1-0.6-1s0.4,0.2,0.6,0.3c0.2,0.1,0.9,0.2,1.3,0.3c0.3,0,2.5-0.3,2.5-2.5C-47.4,309.7-49,308.2-49.6,307.5z
			 M-55.4,288.4c0.1,0.6-0.2,0.9-0.6,0.5c-0.5-0.3-2-1.1-3.7-1.2c-0.4,0,2.4,0.4,3.4,1.6c0.6,0.7,0.7,1.4,0.2,1.7
			c-0.5,0.3-1.4,0.2-2.4-1c-1-1.2-3.6-2.3-6.8-1.3c0,0,3.4-2.6,5.9-2.4C-57,286.7-55.5,287.8-55.4,288.4z M-61.4,292
			c0.6-0.3,1.6-0.7,2.2-0.2c0.6,0.5,0.1,1.3-0.6,1.3c-1.3,0.2-2.5-0.8-2.5-0.8C-61.1,292.1-62.1,292.3-61.4,292z M-70.2,275.5
			c0.5-0.8,1.9-2.3,4.9-2c3,0.3,5.7,1.7,6.5,4.1c0.9,2.4,0.4,4.3-0.8,5.4c-1.8,1.5-3.8,1.7-6.1,2.5c-2.2,0.8-4.2,2-6.3,5
			c0,0,1.3-3.6,3.1-5.9c1.8-2.2,5-3.7,5.8-4.2c0.8-0.4,1.2-1.7,0.4-2.3c-0.8-0.6-1.7-0.8-2.3-0.2c-0.7,0.6-1.2,2.3-2.6,1.7
			c-1.4-0.6-1.3-2-0.9-2.9c0.4-1,1.8-1.7,2.4-1.8c0.7-0.1,1.7-0.2,1.7-0.2s-1.5-0.7-3.1-0.2s-1.4,1.8-2,2.1
			C-69.9,276.9-70.7,276.3-70.2,275.5z M-71.3,278.6c2,1.3,0.3,4.2,0.3,4.2c0.1-0.5-0.2-1.2-0.4-2c-0.2-0.7-1.2-1.7-1.1-1.2
			c0,0.5-0.8,0.8-1.6,0.7c-0.9,0.1-0.6-1-0.4-1.3C-74.3,278.7-73.3,277.4-71.3,278.6z M-78,273.2c0.8,0,1.5,1.3,1.5,1.3
			s0.5-1.1,1.5-1.6s2.4,0.4,1.9,1.1c-0.5,0.6-0.8,0.1-2,0.7c-1.2,0.5-1.4,4.3-1.4,4.3s-0.3-2-0.6-2.8c-0.3-0.9-1.2-1.1-1.8-1
			c-0.6,0.1-1.1-0.4-1.1-1C-79.9,273.5-78.8,273.2-78,273.2z M-79.5,278c0.9-0.1,1.3,1.1,0.1,1.6c-1.2,0.5-1.5,2-1.5,2
			s-0.2-0.4-0.2-1.4C-81.2,279.1-80.4,278.1-79.5,278z M-97,290.4c-0.4-0.2-1.4-1-1.6-2.6c-0.2-1.6,0.7-5.4,4.7-7.3
			c4-1.9,7,0.1,7,0.1c-1.1-1-1.8-1.4-2.3-2.6c-0.4-1.2-0.3-3.3,0.8-4.6c1.1-1.2,2.9-1.7,4.9-1.4c2,0.3,2.1,1.8,2.1,2.8
			c0,0.9-1,2.2-1.6,1.8c-0.6-0.3-0.5-1,0.2-1.8c0.7-0.8-0.4-1.6-1.8-1.7c-1.4-0.1-2.2,0.8-2.8,1.5c-0.6,0.7-0.3,1.9-0.3,1.9
			s0.1-0.5,0.5-1.2c0.4-0.7,1.1-1.2,1.7-0.8c0.6,0.4,0.4,1.3,0,1.5c-0.4,0.2-0.8,1-0.7,2s1,2.2,2.2,3.1c1.2,0.9,3.5,3.5,3.5,3.5
			s0.3-0.8,1.2-1.4s0.6,0.7,0.2,1.2s-0.4,1.9,0.2,3c0.5,0.9,1.4,2.9,1.5,3.3c0-0.2,0.1-0.5,0.1-1c0.3-2.1,1.9-4.4,2.8-5.2
			c0.9-0.8,1.5-0.5,1,0.3s-1.7,3.3-1.9,5.3c-0.2,2,1.3,4.2,1.3,4.2s0.5-1.1,1.7-1.9c1.3-0.7,3.3-1.1,4.6-1.2c1.3-0.1,2-0.3,2.6-0.6
			c0.5-0.3,1,0.3,0.7,0.6c-0.3,0.4-0.8,0.7-2.2,0.8c-1.4,0.1-2.5,0.7-3.5,1.1c-1,0.4-1.7,2-1.9,2.6c-0.2,0.6-0.2,2.9-0.2,3.4
			s-2.9,0-3.1-0.1c-0.2-0.1-0.9-0.6-1.1-0.9c-0.2-0.3-0.6-2-0.6-2s-0.1,1.9-0.4,2.2c-0.3,0.3-0.6,0-0.8-0.7
			c-0.2-0.6-0.6-5.5-0.6-5.5s-0.2,4.8-0.3,5.5c-0.1,0.7-0.2,0.9-0.6,0.8c-0.4-0.1-0.7-0.1-0.7-0.5s0.1-2.2-0.1-3
			c-0.4-0.6-1.5-0.6-2.8-1.3c-1.3-0.6-2.7-1.6-3.4-2.3c-0.7-0.7,0.1-1,0.3-0.8c0.2,0.2,0.8,0.7,2.6,1.5c1.8,0.9,3.3,0.9,3.3,0.9
			s0.2-0.7,0.3-2.1c0.1-1.4-0.4-3-0.9-3.7c-0.5-0.7-1.5-0.9-2.4-0.9s-1.4-0.4-1.4-0.8s0.8-0.4,1-0.2c0.2,0.2,0.7,0.2,0.9-0.1
			c0.3-0.3-0.4-0.8-1.2-1.1c-0.8-0.4-2.1,0.4-2.3,1.1c-0.2,0.7-1.1,1.2-1.4,1c-0.3-0.3-0.4-0.9,0.6-1.9c1-0.9,2.9-0.9,2.7-1
			c-1.1-0.2-2.8-0.1-4.1,0.3c-1.2,0.5-1.8,1.3-1.8,1.8s-0.4,1.2-0.8,1.3c-0.4,0-0.8-0.4-0.7-1.3s1.7-1.8,1.7-1.8s-1.9,0.7-2.5,1.2
			c-0.6,0.5-0.9,1.5-0.8,2.1s0.2,1.1-0.3,1.4c-0.5,0.3-1.3-0.1-1.5-0.5c-0.1-0.4-0.5-1.5,0.7-3.1c1.2-1.5,4.2-2.1,2.8-1.8
			c-1.4,0.3-2.7,1.2-3.7,2.1s-1.3,2.1-1,2.6c0.3,0.6,0.6,1.7,0.5,2.2C-96,290.1-96.6,290.6-97,290.4z M-64.4,304.3
			c0,0-1.5-1.5-1.9-2.6c-0.4-1-0.9-1.5-1.5-1.6c-0.6-0.1-1.1-0.1-1.3-0.4c-0.2-0.3-0.3-1.2-0.3-1.2s1.1,0.1,1.8,0.3
			c0.6,0.2,1.5,0.8,1.7,1.3s1,1.6,1.4,1.8c0.4,0.3,0.9,0.6,0.9,0.6s-0.4,0.6-0.6,1.1C-64.4,304.2-64.4,304.3-64.4,304.3z
			 M-68.5,310.9c0,0.1,0,0.1,0,0.2c-1.7,6.8-8.3,8.4-8.5,8.5l0,0l0,0l0,0l0,0c-0.2,0-8.9-2.2-8.9-11.8c0-0.2,0-0.3,0-0.5
			c0.1-0.4,0.2-1.1,0.2-1.8c0-0.4-0.1-0.7-0.2-0.9c0-1.5,0-2.6,0-3.3c0.1,0,0.7-0.2,0.9-0.5c0,0.6-0.1,2.4-0.1,7.2
			c0,8.6,7.8,10.6,8,10.6l0,0l0,0l0,0l0,0c0.1,0,8-2,8-10.6c0-4.2,0-6.1-0.1-6.9c0.3,0.1,0.6,0.1,0.9,0.2c0,1.1,0,2.9,0,5.8
			c-0.2,0.5-0.4,1.4-0.5,2C-68.6,309.4-68.5,310.3-68.5,310.9z M-82.7,313.9l13.2-12.7c0,0.7,0.1,2.5,0.1,6.7
			c0,8.2-7.3,10.1-7.5,10.2l0,0l0,0l0,0l0,0C-77,318-80.5,317.1-82.7,313.9z M-82.9,313.5c-0.9-1.4-1.4-3.2-1.4-5.6
			c0-8.3,0.1-7.1,0.1-7.1h14.5L-82.9,313.5z M-84.7,300.4c0.1-0.3,0.2-0.6,0.3-1h14.1c0,0.1,0.1,0.2,0.1,0.4
			c0.1,0.2,0.2,0.4,0.3,0.6H-84.7z M-85.8,295c-2.1-0.3-3.6-1.6-2.8-2.1c0.6-0.4,0.8-0.4,1.4,0.5C-86.5,294.3-85.5,295.1-85.8,295z
			 M-85.5,288c0.1-0.8,1.6-0.9,2.2-0.3c0.7,0.5,1.1,1.6,1.2,1.9c0,0-0.9-0.8-1.9-0.7C-85,288.8-85.5,288.8-85.5,288z M-92.2,293.1
			c-0.4-0.6-1.4-2.4,0.2-3.3c1.7-0.9,2.3,0.4,2.4,0.8c0.1,0.5-0.6,1.5-1.5,1.1s-0.4-1.2-0.9-0.7C-92.4,291.6-92.2,293.1-92.2,293.1z
			 M-99.5,304.1c0,0-3-3.4-2-7c0.4-1.3,1.1-1.9,1.9-2.3c0.1-0.4,0.2-0.9,0.5-1c0.4-0.1,0.8,0.1,1.1,0.7c0.6,0,1,0.1,1.1,0.1
			c0.4,0.2,3.8,0.7,4.4,0.7c0.1,0,0,0.6,0,0.8c0,0.2,0.1,0.7-0.1,0.7c-0.1,0-1.7-0.2-2,0.5c-0.2,0.7,0.8,0.9,1.2,0.8
			c0.4-0.1,0.5-0.2,0.5-0.2l0.2,0.7c0,0-0.9-0.1-1,0.3c-0.1,0.3,0.1,0.5,0.3,0.6c0.2,0.1,0.8,0.4,1.1,1.1c0.3,0.5,0.5,1.3,0.5,1.3
			H-92c0,0-2.6-0.4-4.7,0.4C-98.3,303-99.5,304.1-99.5,304.1z M-95.6,310.8c-0.3,1-0.4,3-0.4,3.6s0,1-0.8,1.4
			c-0.8,0.4-2.5,1.3-2.7,2s0,1.2,0.5,1.6c0.4,0.5,1.3,0.8,1.5,1.1c0.2,0.2,0.5,0.9-0.1,0.9c-0.6,0.1-1.8,0-2.3,0s-0.8-0.3-1-0.8
			c-0.2-0.5-0.7-1.7-0.8-2c-0.1-0.3-0.2-0.8,0.2-1.3c0.5-0.2,1.5-1.4,1.6-2.1c0.1-0.7-0.8-1.6-0.8-2.8c0-0.2,0-0.4,0-0.5
			c-1.2,0.7-3,0.9-4,0.6c-1.1-0.4-2.6-1.5-2.9-4.1c-0.3-2.6,1.2-4.1,2.5-4.5c1.3-0.4,2.4,0,3,0.8c0.6,0.8,0.4,1.6-0.1,2.2
			s-1.2,0.8-1.2,0.8s0-0.4,0.1-0.7c0.1-0.3,0.1-0.6,0-1.1c0-0.4-0.5-0.9-1.1-1.2c-0.6-0.2-1.7,0.4-2.2,1c-0.5,0.6-0.7,1.9-0.5,3.1
			c0.2,1.2,1.3,2.3,2.6,2.6c1.2,0.3,3.1-0.3,3.8-1l0,0c0,0,1.9-2.2,2.5-3.5c0.5-1.3-0.1-2.7-0.1-2.7s1.3-1.3,3.3-1.4s3.4,0,3.9-0.5
			s1.6-2.3,2.4-2.9c1-0.8,2.3-1,2.8-0.7c0.5,0.3,0.5,0.4,0.5,0.4l-0.4,0.2l0.3,0.4c0,0-0.3,0.2-0.4,0.3l0.3,0.3
			c0,0.1-0.4,0.1-0.8,0.2c-0.4,0.2-1.1,0.6-1.8,1.6c-0.8,1.2-1.6,2-2.7,2.6c-1.1,0.5-1.3,0.6-1.2,0.7c0.1,0.2,0.7,0.1,1,0
			c0.2-0.1,0.4,0,0.4,0s-0.3,1-1.7,2.4S-95.3,309.9-95.6,310.8z M-86.7,307.2c-0.2,0.5-0.7,0.8-1.4,0.8c-0.7,0-3.8,0-3.8,0
			s0.5-0.5,0.8-1c0.3-0.5,0.6-1.3,0.6-1.3s1.2,0.2,1.7,0.2s0.6,0,1.1-0.7c0.5-0.7,0.9-0.4,1.1-0.2
			C-86.5,305.1-86.6,306.7-86.7,307.2z M-92.2,316.1c-1.2,0-1.3-0.3-1.3-0.6c0-0.3,0-1,0.1-1.7s-0.8-0.8-1.2-0.8c-0.5,0-0.8,0-0.8,0
			s0-0.9,0.1-1.7c0.1-0.8,1.2-1.6,1.3-1.6c1-0.2,2.2,0,2.8,0.7c0.6,0.7,0,2.2-0.3,2.8c-0.3,0.6-0.1,1.2,0.4,1.3c0.5,0.1,1,0,1.7-0.2
			c0.7-0.2,1.1,0.1,1.3,0.4c0.2,0.3-0.1,1.4-0.5,1.4C-88.6,316.1-92.2,316.1-92.2,316.1z M-66.1,318.6l1.1,1.7c0,0-1.9,0-2.4,0
			s-0.9,0.4-1,0.5c0,0.4,0,0.8,0,0.9c0,0.8-2.7,2.2-8,2.3c-0.1,0-0.2,0-0.3,0c-0.1,0-0.2,0-0.3,0c0,0,0,0-0.1,0l0,0l0,0l0,0
			c0,0,0,0-0.1,0c-0.1,0-0.2,0-0.3,0s-0.2,0-0.3,0c-5.3-0.2-8-1.6-8-2.3c0-0.2,0-0.8,0-1.5v0.6c0,0-0.5-0.5-1-0.5s-2.4,0-2.4,0
			l1.1-1.7l-1.2-1.5c0,0,2,0,2.7,0s0.9,0.3,0.9,0.3v0.8c0.3,0.9,2.5,2.7,8.7,2.7c6,0,8.2-1.8,8.6-2.7v-0.9c0,0,0.3-0.3,0.9-0.3
			c0.7,0,2.7,0,2.7,0L-66.1,318.6z M-56.6,314.5c0,0-0.5,0-1.1,0s-0.6,0.9-0.6,1.5c0,0.6-0.8,0.6-1.8,0.7s-1.7,0.6-1.9,0.8
			c-0.2,0.3-0.8,0.4-1.3,0.1c-0.5-0.3-0.5-0.3,0.1-0.9c0.7-0.6,2.2-0.9,3-1s0.4-1.3,0.1-1.9s-0.4-1.5,0.1-1.8
			c0.6-0.4,1.6-0.9,1.6-0.9c0.7,0.5,1.8,0.5,1.8,0.5S-56.6,314.5-56.6,314.5z M-48.4,311.8c-0.1,1.1-0.8,1.9-1.8,1.8
			c-0.8-0.1-1.4-0.5-1.8-0.9c-0.2,0-0.5,0.1-0.7,0.4c-0.5,0.8,0.2,2,0.7,2.5c0.5,0.6-0.1,1.2-0.3,1.7c-0.3,0.6-0.7,2.4-0.9,3.4
			s-0.6,1.1-0.8,1.1h-0.8c-0.4,0-0.5-0.2-0.3-0.7s1.7-3.4,1.7-3.9c-0.1-0.5-0.7-1.2-1.3-1.5c-0.6-0.3-1.3-0.3-1.3-1.5
			c0-1.2,0-3.2,0-3.2l-0.6-0.1l0,0l0,0c0,0-0.1,0-0.8-0.2c-1.1-0.2-2.9-1-4.7-2.5c0,0,0,0-0.1,0c-1-0.5-2.6-1.3-3.3-1
			c-0.7,0.3-1,0.8-0.9,1.6c0,0.8,0.3,1.4-0.1,1.9c-0.4,0.6-1,0.7-1,0.7s-0.1-1.7-0.2-2.2c0-0.4,0.3-1.6,0.6-2.4
			c0.4-0.8,0.5-1.3,0.9-1.3c0.3,0,1.5,0.1,2.2,0c-0.1-0.5,0-1.1,0.1-1.7c0.3-1.7,2.6-2.3,3.1-2.9c0.4-0.6,0.1-1.4,0.1-1.4
			s-0.9,0.6-1.3,1c-0.4,0.4-0.9,0.5-1.2,0.4s-0.5-0.2-0.4-1c0-0.8,0.3-2.8,0.3-2.8l-4.8-4c0,0,3.3,1.5,5.5,2.4l0.2-0.8l1,1.3
			c0.3,0.1,0.5,0.1,0.6,0.1c1,0,2.4,0.3,3.4,2.1c1.3,2.4,0.1,3.2,0.1,5.7c0,2.4,1.9,3.6,3.7,4.8c0.6,0.4,1,1,1.2,1.6
			c0.5,1,0.9,2.2,2.1,2.2c1.2,0,1.2-1.8,0.2-2.8c-0.8-0.9-3-2.6-2.8-4.7s1.3-2.4,1.7-2.5c0.4-0.1-0.9,1-0.9,2.2
			c0,1.2,0.6,2.4,1.6,3.3C-49.1,309.3-48.3,310.7-48.4,311.8z M-51.6,309.5c0,0,1,1,1.2,1.3s0.3,0.7,0.2,0.8c-0.1,0.1,0,0.2-0.3,0
			c-0.2-0.2-0.6-0.7-0.6-1C-51.2,310.3-51.6,309.5-51.6,309.5z M-76.2,314.5c0.2-0.4,0.4-1.2,0-2c-0.4-0.8-1-0.8-1.1-0.7
			c-0.4,0.3-0.1,0.6,0.1,1.1c0.2,0.4,0.1,1-0.1,1.3c-0.2,0.3-0.3,0.9-0.1,1.1C-77.2,315.4-76.6,315.3-76.2,314.5z M-95.8,296.6
			c0.2,0,0.4-0.2,0.4-0.4c0-0.2-0.2-0.4-0.4-0.4c-0.2,0-0.4,0.2-0.4,0.4C-96.2,296.4-96,296.6-95.8,296.6z M-74.6,313
			c0.2,0.2,0.8,0,1.2-0.7c0.2-0.4,0.4-1.2,0-2c-0.4-0.8-1-0.8-1.1-0.7c-0.4,0.3-0.1,0.6,0.1,1.1c0.2,0.4,0.1,1-0.1,1.3
			C-74.7,312.2-74.8,312.8-74.6,313z M-78.4,303.4l0.7,1.8h0.3l0.7-1.8v1.8h0.8v-2.8H-77l-0.6,1.5l-0.6-1.5h-1.1v2.8h0.8
			L-78.4,303.4L-78.4,303.4z M-80.2,307.2c0-0.5-0.3-0.9-1-0.9H-82v-0.4h1.5v-0.6h-2.3v2.8h1.5C-80.6,308.1-80.2,307.7-80.2,307.2z
			 M-82,307.5v-0.6h0.6c0.2,0,0.3,0.1,0.3,0.3c0,0.2-0.1,0.3-0.3,0.3H-82z"/>
	</g>
</g>
</svg>
